<mxfile host="app.diagrams.net" modified="2023-03-09T12:59:54.153Z" agent="5.0 (X11)" etag="4UJ8fyWCCAbSQ41BMIk0" version="21.0.2" type="github">
  <diagram name="Page-1" id="eCnvKz5F_JnYIy8CIblA">
    <mxGraphModel dx="1816" dy="548" grid="1" gridSize="10" guides="1" tooltips="1" connect="1" arrows="1" fold="1" page="1" pageScale="1" pageWidth="827" pageHeight="1169" math="0" shadow="0">
      <root>
        <mxCell id="0" />
        <mxCell id="1" parent="0" />
        <mxCell id="S2JTBpfcp0FMDl5_80Yb-3" style="edgeStyle=orthogonalEdgeStyle;rounded=0;orthogonalLoop=1;jettySize=auto;html=1;exitX=0.5;exitY=1;exitDx=0;exitDy=0;entryX=0.5;entryY=0;entryDx=0;entryDy=0;" edge="1" parent="1" source="S2JTBpfcp0FMDl5_80Yb-1" target="S2JTBpfcp0FMDl5_80Yb-2">
          <mxGeometry relative="1" as="geometry" />
        </mxCell>
        <mxCell id="S2JTBpfcp0FMDl5_80Yb-1" value="" style="ellipse;whiteSpace=wrap;html=1;fillColor=#2e3436;" vertex="1" parent="1">
          <mxGeometry x="390" y="30" width="20" height="20" as="geometry" />
        </mxCell>
        <mxCell id="S2JTBpfcp0FMDl5_80Yb-7" style="edgeStyle=orthogonalEdgeStyle;rounded=0;orthogonalLoop=1;jettySize=auto;html=1;exitX=0.5;exitY=1;exitDx=0;exitDy=0;entryX=0.5;entryY=0;entryDx=0;entryDy=0;" edge="1" parent="1" source="S2JTBpfcp0FMDl5_80Yb-2" target="S2JTBpfcp0FMDl5_80Yb-26">
          <mxGeometry relative="1" as="geometry">
            <mxPoint x="400" y="220" as="targetPoint" />
          </mxGeometry>
        </mxCell>
        <mxCell id="S2JTBpfcp0FMDl5_80Yb-2" value="InitState" style="rounded=1;whiteSpace=wrap;html=1;absoluteArcSize=1;arcSize=14;strokeWidth=1;fillColor=#f5f5f5;fontColor=#333333;strokeColor=#666666;" vertex="1" parent="1">
          <mxGeometry x="340" y="90" width="120" height="50" as="geometry" />
        </mxCell>
        <mxCell id="S2JTBpfcp0FMDl5_80Yb-54" style="edgeStyle=orthogonalEdgeStyle;rounded=0;orthogonalLoop=1;jettySize=auto;html=1;exitX=0.5;exitY=1;exitDx=0;exitDy=0;entryX=0.5;entryY=0;entryDx=0;entryDy=0;" edge="1" parent="1" source="S2JTBpfcp0FMDl5_80Yb-4" target="S2JTBpfcp0FMDl5_80Yb-53">
          <mxGeometry relative="1" as="geometry" />
        </mxCell>
        <mxCell id="S2JTBpfcp0FMDl5_80Yb-4" value="StateA" style="rounded=1;whiteSpace=wrap;html=1;absoluteArcSize=1;arcSize=14;strokeWidth=1;fillColor=#f5f5f5;fontColor=#333333;strokeColor=#666666;" vertex="1" parent="1">
          <mxGeometry x="340" y="410" width="120" height="50" as="geometry" />
        </mxCell>
        <mxCell id="S2JTBpfcp0FMDl5_80Yb-5" value="StateB" style="rounded=1;whiteSpace=wrap;html=1;absoluteArcSize=1;arcSize=14;strokeWidth=1;" vertex="1" parent="1">
          <mxGeometry x="-10" y="800" width="120" height="50" as="geometry" />
        </mxCell>
        <mxCell id="S2JTBpfcp0FMDl5_80Yb-6" value="StateC" style="rounded=1;whiteSpace=wrap;html=1;absoluteArcSize=1;arcSize=14;strokeWidth=1;" vertex="1" parent="1">
          <mxGeometry x="340" y="910" width="120" height="50" as="geometry" />
        </mxCell>
        <mxCell id="S2JTBpfcp0FMDl5_80Yb-8" value="Ok(new_state) " style="text;html=1;strokeColor=none;fillColor=none;align=center;verticalAlign=middle;whiteSpace=wrap;rounded=0;" vertex="1" parent="1">
          <mxGeometry x="400" y="250" width="90" height="30" as="geometry" />
        </mxCell>
        <mxCell id="S2JTBpfcp0FMDl5_80Yb-9" value="try_transit" style="text;html=1;strokeColor=none;fillColor=none;align=center;verticalAlign=middle;whiteSpace=wrap;rounded=0;" vertex="1" parent="1">
          <mxGeometry x="400" y="140" width="70" height="30" as="geometry" />
        </mxCell>
        <mxCell id="S2JTBpfcp0FMDl5_80Yb-23" style="edgeStyle=orthogonalEdgeStyle;rounded=0;orthogonalLoop=1;jettySize=auto;html=1;entryX=0.5;entryY=0;entryDx=0;entryDy=0;exitX=0.5;exitY=1;exitDx=0;exitDy=0;" edge="1" parent="1" source="S2JTBpfcp0FMDl5_80Yb-26" target="S2JTBpfcp0FMDl5_80Yb-21">
          <mxGeometry relative="1" as="geometry">
            <mxPoint x="400" y="280" as="sourcePoint" />
          </mxGeometry>
        </mxCell>
        <mxCell id="S2JTBpfcp0FMDl5_80Yb-15" value="false" style="text;html=1;strokeColor=none;fillColor=none;align=center;verticalAlign=middle;whiteSpace=wrap;rounded=0;" vertex="1" parent="1">
          <mxGeometry x="320" y="340" width="60" height="30" as="geometry" />
        </mxCell>
        <mxCell id="S2JTBpfcp0FMDl5_80Yb-16" value="true / Stack::push(previous_state)" style="text;html=1;strokeColor=none;fillColor=none;align=center;verticalAlign=middle;whiteSpace=wrap;rounded=0;" vertex="1" parent="1">
          <mxGeometry x="380" y="340" width="240" height="30" as="geometry" />
        </mxCell>
        <mxCell id="S2JTBpfcp0FMDl5_80Yb-18" value="Unreachable || Fail" style="text;html=1;strokeColor=none;fillColor=none;align=center;verticalAlign=middle;whiteSpace=wrap;rounded=0;" vertex="1" parent="1">
          <mxGeometry x="130" y="200" width="120" height="30" as="geometry" />
        </mxCell>
        <mxCell id="S2JTBpfcp0FMDl5_80Yb-20" value="[previous_state != new_state]" style="text;html=1;strokeColor=none;fillColor=none;align=center;verticalAlign=middle;whiteSpace=wrap;rounded=0;" vertex="1" parent="1">
          <mxGeometry x="400" y="300" width="180" height="30" as="geometry" />
        </mxCell>
        <mxCell id="S2JTBpfcp0FMDl5_80Yb-39" style="edgeStyle=orthogonalEdgeStyle;rounded=0;orthogonalLoop=1;jettySize=auto;html=1;exitX=0.5;exitY=1;exitDx=0;exitDy=0;entryX=0.5;entryY=0;entryDx=0;entryDy=0;" edge="1" parent="1" source="S2JTBpfcp0FMDl5_80Yb-21" target="S2JTBpfcp0FMDl5_80Yb-4">
          <mxGeometry relative="1" as="geometry" />
        </mxCell>
        <mxCell id="S2JTBpfcp0FMDl5_80Yb-40" style="edgeStyle=orthogonalEdgeStyle;rounded=0;orthogonalLoop=1;jettySize=auto;html=1;exitX=0;exitY=0.5;exitDx=0;exitDy=0;entryX=0.25;entryY=0;entryDx=0;entryDy=0;" edge="1" parent="1" source="S2JTBpfcp0FMDl5_80Yb-21" target="S2JTBpfcp0FMDl5_80Yb-4">
          <mxGeometry relative="1" as="geometry">
            <Array as="points">
              <mxPoint x="370" y="335" />
            </Array>
          </mxGeometry>
        </mxCell>
        <mxCell id="S2JTBpfcp0FMDl5_80Yb-21" value="" style="rhombus;whiteSpace=wrap;html=1;" vertex="1" parent="1">
          <mxGeometry x="385" y="320" width="30" height="30" as="geometry" />
        </mxCell>
        <mxCell id="S2JTBpfcp0FMDl5_80Yb-28" style="edgeStyle=orthogonalEdgeStyle;rounded=0;orthogonalLoop=1;jettySize=auto;html=1;exitX=0;exitY=0.5;exitDx=0;exitDy=0;entryX=0;entryY=0.5;entryDx=0;entryDy=0;" edge="1" parent="1" source="S2JTBpfcp0FMDl5_80Yb-26" target="S2JTBpfcp0FMDl5_80Yb-2">
          <mxGeometry relative="1" as="geometry">
            <mxPoint x="120" y="225" as="targetPoint" />
            <Array as="points">
              <mxPoint x="130" y="225" />
              <mxPoint x="130" y="115" />
            </Array>
          </mxGeometry>
        </mxCell>
        <mxCell id="S2JTBpfcp0FMDl5_80Yb-26" value="&lt;div&gt;ConditionState&lt;/div&gt;&lt;div&gt; entry / match target.try_transit(object)&lt;/div&gt;" style="rounded=1;whiteSpace=wrap;html=1;absoluteArcSize=1;arcSize=14;strokeWidth=1;" vertex="1" parent="1">
          <mxGeometry x="250" y="200" width="300" height="50" as="geometry" />
        </mxCell>
        <mxCell id="S2JTBpfcp0FMDl5_80Yb-30" value="Fail" style="text;html=1;strokeColor=none;fillColor=none;align=center;verticalAlign=middle;whiteSpace=wrap;rounded=0;" vertex="1" parent="1">
          <mxGeometry x="550" y="540" width="40" height="30" as="geometry" />
        </mxCell>
        <mxCell id="S2JTBpfcp0FMDl5_80Yb-35" style="edgeStyle=orthogonalEdgeStyle;rounded=0;orthogonalLoop=1;jettySize=auto;html=1;exitX=0.5;exitY=0;exitDx=0;exitDy=0;entryX=1;entryY=0.5;entryDx=0;entryDy=0;" edge="1" parent="1" source="S2JTBpfcp0FMDl5_80Yb-31" target="S2JTBpfcp0FMDl5_80Yb-2">
          <mxGeometry relative="1" as="geometry" />
        </mxCell>
        <mxCell id="S2JTBpfcp0FMDl5_80Yb-61" style="edgeStyle=orthogonalEdgeStyle;rounded=0;orthogonalLoop=1;jettySize=auto;html=1;exitX=0.5;exitY=1;exitDx=0;exitDy=0;entryX=0;entryY=0.5;entryDx=0;entryDy=0;" edge="1" parent="1" source="S2JTBpfcp0FMDl5_80Yb-31" target="S2JTBpfcp0FMDl5_80Yb-63">
          <mxGeometry relative="1" as="geometry">
            <mxPoint x="810" y="610" as="targetPoint" />
            <Array as="points">
              <mxPoint x="635" y="605" />
            </Array>
          </mxGeometry>
        </mxCell>
        <mxCell id="S2JTBpfcp0FMDl5_80Yb-31" value="" style="rhombus;whiteSpace=wrap;html=1;" vertex="1" parent="1">
          <mxGeometry x="620" y="550" width="30" height="30" as="geometry" />
        </mxCell>
        <mxCell id="S2JTBpfcp0FMDl5_80Yb-33" value="[Stack::pull()]" style="text;html=1;strokeColor=none;fillColor=none;align=center;verticalAlign=middle;whiteSpace=wrap;rounded=0;" vertex="1" parent="1">
          <mxGeometry x="640" y="550" width="110" height="30" as="geometry" />
        </mxCell>
        <mxCell id="S2JTBpfcp0FMDl5_80Yb-34" value="Ok(previous_state)" style="text;html=1;strokeColor=none;fillColor=none;align=center;verticalAlign=middle;whiteSpace=wrap;rounded=0;" vertex="1" parent="1">
          <mxGeometry x="620" y="510" width="150" height="30" as="geometry" />
        </mxCell>
        <mxCell id="S2JTBpfcp0FMDl5_80Yb-57" style="edgeStyle=orthogonalEdgeStyle;rounded=0;orthogonalLoop=1;jettySize=auto;html=1;exitX=0;exitY=0.5;exitDx=0;exitDy=0;entryX=0;entryY=0.5;entryDx=0;entryDy=0;" edge="1" parent="1" source="S2JTBpfcp0FMDl5_80Yb-53" target="S2JTBpfcp0FMDl5_80Yb-4">
          <mxGeometry relative="1" as="geometry">
            <Array as="points">
              <mxPoint x="130" y="565" />
              <mxPoint x="130" y="435" />
            </Array>
          </mxGeometry>
        </mxCell>
        <mxCell id="S2JTBpfcp0FMDl5_80Yb-58" style="edgeStyle=orthogonalEdgeStyle;rounded=0;orthogonalLoop=1;jettySize=auto;html=1;exitX=1;exitY=0.5;exitDx=0;exitDy=0;entryX=0;entryY=0.5;entryDx=0;entryDy=0;" edge="1" parent="1" source="S2JTBpfcp0FMDl5_80Yb-53" target="S2JTBpfcp0FMDl5_80Yb-31">
          <mxGeometry relative="1" as="geometry" />
        </mxCell>
        <mxCell id="S2JTBpfcp0FMDl5_80Yb-53" value="&lt;div&gt;ConditionState&lt;/div&gt;&lt;div&gt; entry / match target.try_transit(object)&lt;/div&gt;" style="rounded=1;whiteSpace=wrap;html=1;absoluteArcSize=1;arcSize=14;strokeWidth=1;" vertex="1" parent="1">
          <mxGeometry x="250" y="540" width="300" height="50" as="geometry" />
        </mxCell>
        <mxCell id="S2JTBpfcp0FMDl5_80Yb-55" value="try_transit" style="text;html=1;strokeColor=none;fillColor=none;align=center;verticalAlign=middle;whiteSpace=wrap;rounded=0;" vertex="1" parent="1">
          <mxGeometry x="400" y="460" width="70" height="30" as="geometry" />
        </mxCell>
        <mxCell id="S2JTBpfcp0FMDl5_80Yb-56" value="Unreachable" style="text;html=1;strokeColor=none;fillColor=none;align=center;verticalAlign=middle;whiteSpace=wrap;rounded=0;" vertex="1" parent="1">
          <mxGeometry x="150" y="540" width="120" height="30" as="geometry" />
        </mxCell>
        <mxCell id="S2JTBpfcp0FMDl5_80Yb-60" value="Err" style="text;html=1;strokeColor=none;fillColor=none;align=center;verticalAlign=middle;whiteSpace=wrap;rounded=0;" vertex="1" parent="1">
          <mxGeometry x="630" y="585" width="60" height="30" as="geometry" />
        </mxCell>
        <mxCell id="S2JTBpfcp0FMDl5_80Yb-62" value="" style="ellipse;whiteSpace=wrap;html=1;fillColor=#2e3436;" vertex="1" parent="1">
          <mxGeometry x="755" y="600" width="10" height="10" as="geometry" />
        </mxCell>
        <mxCell id="S2JTBpfcp0FMDl5_80Yb-63" value="" style="ellipse;whiteSpace=wrap;html=1;fillColor=none;" vertex="1" parent="1">
          <mxGeometry x="750" y="595" width="20" height="20" as="geometry" />
        </mxCell>
        <mxCell id="S2JTBpfcp0FMDl5_80Yb-64" value="" style="rhombus;whiteSpace=wrap;html=1;" vertex="1" parent="1">
          <mxGeometry x="385" y="650" width="30" height="30" as="geometry" />
        </mxCell>
        <mxCell id="S2JTBpfcp0FMDl5_80Yb-65" value="Ok(new_state) " style="text;html=1;strokeColor=none;fillColor=none;align=center;verticalAlign=middle;whiteSpace=wrap;rounded=0;" vertex="1" parent="1">
          <mxGeometry x="400" y="595" width="90" height="30" as="geometry" />
        </mxCell>
      </root>
    </mxGraphModel>
  </diagram>
</mxfile>
